<svg xmlns="http://www.w3.org/2000/svg" viewBox="0 0 96 96">
<circle cx="48" cy="48" r="46.5" style="fill:#2b2828;stroke:#fffbfb"/>
<circle cx="48" cy="48" r="32"/>
<circle cx="48" cy="48" r="23" fill="#b78002"/>
<circle cx="48" cy="48" r="21" style="fill:none;stroke:#ff92009;stroke-width:2"/>
<path style="fill:#fff;opacity:.4;filter:blur(3px)" d="M44 51 6 28l9-12L27 6l26 39 37 22-8 14-14 9z"/>
<circle cx="48" cy="48" r="8"/>
<g style="fill:none;stroke-width:.1;stroke:#000">
<circle cx="48" cy="48" r="45"/>
<circle cx="48" cy="48" r="44"/>
<circle cx="48" cy="48" r="43"/>
<circle cx="48" cy="48" r="42"/>
<circle cx="48" cy="48" r="41"/>
<circle cx="48" cy="48" r="40"/>
<circle cx="48" cy="48" r="39"/>
<circle cx="48" cy="48" r="38"/>
<circle cx="48" cy="48" r="37"/>
<circle cx="48" cy="48" r="36"/>
<circle cx="48" cy="48" r="35"/>
<circle cx="48" cy="48" r="34"/>
<circle cx="48" cy="48" r="33"/>
<circle cx="48" cy="48" r="30" stroke="#605a5a"/>
<circle cx="48" cy="48" r="28" stroke="#636363"/>
<circle cx="48" cy="48" r="26" stroke="#636363"/>
<circle cx="48" cy="48" r="24" stroke="#636363"/>
</g>
</svg>
