<svg xmlns="http://www.w3.org/2000/svg" xml:space="preserve" id="svg29" style="fill-rule:evenodd;clip-rule:evenodd;stroke-linejoin:round;stroke-miterlimit:2" version="1.1" viewBox="0 0 540 540">
  <path id="Vinyl" d="M270 29A243 243 0 0 0 29 270c0 132 109 241 241 241s241-109 241-241S402 29 270 29Zm0 167 74 74-74 88-78-88 78-74Z" style="fill-rule:nonzero"/>
  <path id="Label" d="M184 184c-47 47-47 125 0 172s125 47 172 0 47-125 0-172-125-47-172 0Zm54 54a44 44 0 1 1 66 60 44 44 0 0 1-66-60Z" style="fill:#f37c00;fill-rule:nonzero;stroke:#9b1600;stroke-width:2.6656"/>
  <circle id="Label-ring" cx="269.8" cy="269.4" r="107.8" style="fill:none;stroke:#b21700;stroke-width:5px;stroke-linejoin:miter;stroke-miterlimit:4"/>
  <!-- <path id="Shine" d="M102 103a237 237 0 1 0 335 334 237 237 0 0 0-335-334Zm135 137c22-25 56-13 65 1 27 31-2 60-4 62a45 45 0 0 1-60-2c-17-16-29-32-1-61Z" style="fill:url(#_Shine);fill-rule:nonzero"/> -->
    <path id="Shine" d="M200 107c-51 0-93 42-93 93s42 93 93 93 93-42 93-93-42-93-93-93Zm-.6 75.7c13-1 19 11.8 17.7 18.4-1 16-17.2 16-18.2 16a17.7 17.7 0 0 1-16.3-17.3s.8-16.8 16.8-17.1Z" style="fill:url(#_Shine);fill-rule:nonzero" transform="matrix(1.8 -1.8 1.8 1.8 -450.5 270)"/>

  <g id="Grooves">
    <circle id="circle1" cx="270" cy="270.1" r="240.1" style="fill:none;stroke:#000;stroke-width:.2px;stroke-linejoin:miter;stroke-miterlimit:4"/>
    <circle id="circle2" cx="270" cy="270.1" r="235.2" style="fill:none;stroke:#000;stroke-width:.2px;stroke-linejoin:miter;stroke-miterlimit:4"/>
    <circle id="circle3" cx="270" cy="270.1" r="230.3" style="fill:none;stroke:#000;stroke-width:.2px;stroke-linejoin:miter;stroke-miterlimit:4"/>
    <circle id="circle4" cx="270" cy="270.1" r="225.4" style="fill:none;stroke:#000;stroke-width:.2px;stroke-linejoin:miter;stroke-miterlimit:4"/>
    <circle id="circle5" cx="270" cy="270.1" r="220.5" style="fill:none;stroke:#000;stroke-width:.2px;stroke-linejoin:miter;stroke-miterlimit:4"/>
    <circle id="circle6" cx="270" cy="270.1" r="215.6" style="fill:none;stroke:#000;stroke-width:.2px;stroke-linejoin:miter;stroke-miterlimit:4"/>
    <circle id="circle7" cx="270" cy="270.1" r="210.7" style="fill:none;stroke:#000;stroke-width:.2px;stroke-linejoin:miter;stroke-miterlimit:4"/>
    <circle id="circle8" cx="270" cy="270.1" r="205.8" style="fill:none;stroke:#000;stroke-width:.2px;stroke-linejoin:miter;stroke-miterlimit:4"/>
    <circle id="circle9" cx="270" cy="270.1" r="200.9" style="fill:none;stroke:#000;stroke-width:.2px;stroke-linejoin:miter;stroke-miterlimit:4"/>
    <circle id="circle10" cx="270" cy="270.1" r="196" style="fill:none;stroke:#000;stroke-width:.2px;stroke-linejoin:miter;stroke-miterlimit:4"/>
    <circle id="circle11" cx="270" cy="270.1" r="191.1" style="fill:none;stroke:#000;stroke-width:.2px;stroke-linejoin:miter;stroke-miterlimit:4"/>
    <circle id="circle12" cx="270" cy="270.1" r="186.2" style="fill:none;stroke:#000;stroke-width:.2px;stroke-linejoin:miter;stroke-miterlimit:4"/>
    <circle id="circle13" cx="270" cy="270.1" r="181.3" style="fill:none;stroke:#000;stroke-width:.2px;stroke-linejoin:miter;stroke-miterlimit:4"/>
    <circle id="circle14" cx="270" cy="270.1" r="176.4" style="fill:none;stroke:#000;stroke-width:.2px;stroke-linejoin:miter;stroke-miterlimit:4"/>
    <circle id="circle15" cx="270" cy="270.1" r="171.5" style="fill:none;stroke:#000;stroke-width:.2px;stroke-linejoin:miter;stroke-miterlimit:4"/>
    <circle id="circle16" cx="270" cy="270.1" r="166.6" style="fill:none;stroke:#000;stroke-width:.2px;stroke-linejoin:miter;stroke-miterlimit:4"/>
    <circle id="circle17" cx="270" cy="270.1" r="156.8" style="fill:none;stroke:#000;stroke-width:.2px;stroke-linejoin:miter;stroke-miterlimit:4"/>
    <circle id="circle18" cx="270" cy="270.1" r="147" style="fill:none;stroke:#000;stroke-width:.2px;stroke-linejoin:miter;stroke-miterlimit:4"/>
    <circle id="circle19" cx="270" cy="270.1" r="137.2" style="fill:none;stroke:#000;stroke-width:.2px;stroke-linejoin:miter;stroke-miterlimit:4"/>
    <circle id="circle20" cx="270" cy="270.1" r="127.4" style="fill:none;stroke:#000;stroke-width:.2px;stroke-linejoin:miter;stroke-miterlimit:4"/>
  </g>
  <path id="Runout" d="M270 125c79 0 146 67 146 145 0 79-67 145-146 145-80 0-145-66-145-145 0-78 65-145 145-145Z" style="fill:none;fill-rule:nonzero;stroke:#000;stroke-linejoin:miter;stroke-miterlimit:4;stroke-opacity:.36;stroke-width:46.06"/>
  <g id="TextShadow">
    <path id="Revinylised" d="M59 184c-1 13-13 20 0 29 13 16 18 38 8 55-8 8-21 2-23-9-4-12 1-26-1-39 2-4-4-6-4-2-4 17 5 35-2 50-9 8-27 5-27-8-2-12 3-22 7-32 4-15 7-33-4-46-1-9 12-9 17-10 12-1 24 1 29 12Zm-25 1c0 6 2 20 8 10 2-6 0-13-8-10Zm82-9c4 4 6 13 0 15-5 0-10-10-14-6 0 6 16 9 7 16-7-3-11 10-3 9 7-9 18-9 17 4 2 14 3 29 0 41-4 12-19 10-28 12-12 3-25-7-20-20 4-17 17-35 10-53-5-7-9-20 4-21 9-2 16-1 25 1l2 2Zm33 3c1 11-7 24 1 33 8 0 8-11 6-16-8-16 11-31 23-18 2 8-6 16-8 24-6 12-9 28-8 43 1 10-15 20-22 8-6-14 2-31-5-45-3-9-9-17-12-26 1-12 21-12 25-3Zm58-2c5 11-10 21-5 31 3 12 9 27 1 39-5 6-15 7-22 3-9-7-1-22 1-31 5-10 9-21 3-32-5-9 5-15 13-14 2 1 6 1 9 4Zm25-1c6 11 7 24 11 35 1-11-3-22-5-33 4-6 14-8 18-1 1 9-8 19-5 28 1 14 17 50-9 39-7-14-6-30-12-44-6 9 3 22 4 33 8 20-30 20-22 0 0-15 12-30 3-45-3-6-1-15 7-15 4-1 7 0 10 3Zm42 1c1 5-1 14 5 13 7-4-1-15 8-16 4-3 12 2 8 9-4 8-14 16-8 26 4 10 7 22 2 33-8 8-23 3-25-8-5-13 11-24 7-37-4-7-13-15-8-23 4-3 10-2 11 3Zm51 1c-4 8-10 19-4 26 3-2 9-8 12-1 3 11 2 26-1 38-3 11-17 9-27 7-15-5-6-24-2-35 3-9 3-19-1-28-4-6 2-14 9-13 5-1 13 0 14 6Zm40-2c6 11-10 22-3 32 3 14 10 29 3 43-8 9-29 2-28-12 0-17 14-34 7-51-4-4-4-14 3-15 5-1 13-2 18 3Zm49 6c4 6-4 15-10 10-2-5-5-16-10-10-6 3 0 10 4 12 15 6 24 21 22 37-1 14-9 30-24 30-10 1-19-6-21-15-4-9-1-20 0-30 0-14 12 0 17-6-2-11-24-26-4-37 8-3 22-1 26 9Zm49-5c4 4 7 15-1 15-5 0-6-9-12-7-5 7 13 7 7 16-6-1-9 3-10 9 3 15 22-14 22 6 2 15 3 31-3 45-6 10-19 8-28 7-8-1-19-6-18-15 1-17 14-31 13-49 4-9-7-17-5-26 10-9 23-5 34-3l1 2Zm56 9c14 23 17 56 0 77a35 35 0 0 1-40 6c-7-5-8-15-4-21 8-18 14-42 3-60-8-8 3-15 11-15 11-1 26 1 30 13Zm-19 3c2 9-3 22 3 27 9-4 7-20 0-27h-3Z" style="fill-rule:nonzero;stroke:#000;stroke-linejoin:miter;stroke-miterlimit:4;stroke-width:1.96"/>
    <path id="Super" d="M133 269c1 7-6 5-6-1-6 2 1 7 3 8 6 5 5 15 1 21-3 5-11 3-11-4 0-5-1-9 1-13 1 0 6 0 4-3-3-2-6-8-1-11 3-1 7 0 9 3Zm10 6c1 3-4 9 0 10 4-1 1-6 1-8 0-9 9-1 4 4-2 6 4 13-1 17-3 3-11 2-11-4 1-6 2-11 0-17-1-5 4-6 6-2h1Zm20 1c2 3-1 7-4 7-6 2 1 9 1 12 1 6-7 6-9 3-3-6 5-12 1-19-3-3-1-7 3-7 3 0 7 0 8 4Zm-7 0c-2 9 6 0 0 0Zm21-1c2 3-1 8-6 6-3 6 6 0 7 2 1 5 2 12-3 15-5 4-10-2-10-6-1-6 0-14 5-18 2-2 5 0 6 1h1Zm-6 2c-3 3 8 0 0 0Zm15-2c0 2 2-3 4-3 4 2 4 13-1 9-1-7-3 7 0 10 1 3 2 7-2 9-7 2-8-6-6-11 3-4 1-10-1-14 1-3 5-4 6 0Zm37-6c3 5-5 7-4 0-10 2 9 9 7 16 0 4-2 12-6 15-6 1-9-4-9-8s-2-13 2-12c3 1 3-2 1-3-3-3-4-10 1-11 3-1 7 0 7 2l1 1Zm15 6c4 5-6 6-7 8 2 5 7-5 8 1 1 4 2 12-2 14-5 3-9-1-10-4-1-7-1-17 5-22 3 0 4 0 5 3h1Zm-6 2c-3 4 8 0 0 0Zm22-2c0 3-2 8 0 12 3 5 4 15-4 11-3-3-1-9-1-13 3-4-1-11-2-5 0 7 6 18-2 20-6 0-3-9-1-12 2-4 1-9-2-13 3-4 5 1 7-3 3 0 5 0 5 3Zm13-1c3 1 3 6-2 5-3-7-1 2 4 4 2 5 2 12-3 15-6 4-9-5-8-10 0-4 2-7 4-3 0-4-7-10 1-13l4 2Zm16 1c-4 8 7 20-2 25-5 0-10-2-10-6 0-6 1-13 7-15 3-1-2-5-2-1-1 3-4 1-3-1 0-5 8-6 10-2Zm-5 8c-4 2 1 8 1 2l-1-2Zm15-14c2 2-2 6 2 6 2 2-7 4-2 10 3 4 5 15-1 15-4 1-6-5-5-8 1-6 3-13-1-16 4-4 0-11 7-7Zm12 6c0 4-4 9 0 13 1 4 3 10-2 13-6 1-7-6-6-10 2-5 3-10 1-14-1-5 6-5 7-2Zm-4-10c8 1 0 12-2 4-1-1 0-4 2-4Zm16 9c4 6 6 17 1 23-2 5-9 1-10-3-1-7-1-16 5-22 1-1 3 0 4 2Zm-3 3c-3 7 4 7 1 0h-1Zm21-2c0 4-1 8 2 12 1 4 4 9 0 11a5 5 0 0 1-6-4v-16c-4 0-1 7-1 10 0 5 1 14-7 10-3-6 6-14 1-21-2-2 1-6 2-2 3-1 8-5 9 0Zm16 0c-3 8 1 14 1 22-4 5-13 3-12-5-2-7 6-11 6-16-2 0-2 7-4 3-2-5 6-9 9-4Zm-5 8c-2 1-1 8 0 3v-3Zm17-15c1 3-4 6-3 10-1 7 6 14 4 19-9 6-13-4-9-10 2-6 3-12 0-18-1-4 6-4 8-1Zm31-2c3 2-1 5 0 9-1 8 3 16 0 22-9 7-16-6-9-13 2-5 6-9 4-14-3 1-7 6-5 0 0-7 7-4 10-4Zm11 2c1 6 0 12-5 17-4 0 1-5-1-7-1-3-2-9 1-12 2-1 3 1 5 2Zm10 0c1 6 0 12-6 16l-1-14c0-2 3-8 6-3l1 1Z" style="fill-rule:nonzero;stroke:#000;stroke-linejoin:miter;stroke-miterlimit:4;stroke-width:.735"/>
    <path id="Sounds" d="M30 297c2 4-1 10-5 7-1-14-12-2-3 2 14 8 16 31 6 42-7 5-16 1-17-6-2-9-2-17 1-26 2 0 6 4 7 0-3-7-12-16-3-22 5-4 12-2 14 3Zm21 14c5 12 8 31 0 42-8 6-15-7-15-15 0-10 0-21 7-29 2-2 6-1 8 2Zm-6 5c-1 4-2 12 4 9-1-1 0-14-4-9Zm23-1c2 6-6 15 1 18 9-4-6-19 5-22 9 0 5 13 3 17-2 9 8 23-3 29-6 2-16-1-16-8 1-10 4-21 0-30-2-7 6-11 10-4Zm35 3c-1 8-3 15 1 23 1 6 7 16 0 19-10 3-10-11-8-17 0-6 3-16-1-20-5 9 1 22-1 33-1 7-13 6-12-1 7-13 1-29 5-40 2 2 2 4 5 0 3-2 10-3 11 3Zm27-8c0 6-3 15-2 22-1 11 9 23 2 32-7 6-20 3-20-7-1-11-2-25 5-35 3 0 7 4 7-1-4-7-1-18 7-12l1 1Zm-12 22c-2 15 7 4 2-2-1-1-3 3-2 2Zm31-7c6 2 0 17-2 7 0-6-6-2-3 1 6 6 11 14 9 23 0 6-4 16-11 13-8-8-7-19-5-28 12 8-3-8 1-15 2-3 9-4 11-1Zm45 8c4 12 7 28 1 40-8 9-16-1-16-10-1-10-1-22 6-32 2-2 7-1 9 2Zm-7 6c-4 6 6 15 4 3-1-2-1-6-4-3Zm31-18c6 2 2 14-3 9-1-9-6 4 0 3 5 4-1 7-3 9-1 11 10 23 4 34-5 6-16 0-15-7-1-11 9-20 2-29-8-3 3-7 1-13-1-7 7-13 14-6Zm31 7c-2 6-2 10 3 12 2 5-6 2-5 8 0 9 11 22 3 31-7 7-15-3-12-10 2-9 5-17 3-24-10-4 2-8-1-15 0-4 7-4 9-2Zm18-3c0 2-6 15 2 12 16-5 4 15 9 23 1 6 9 17 0 21-5 2-9-2-8-8-2-9 3-19-1-28-5 11 3 24-3 34-16 9-9-16-7-25 4-8-1-17-2-26-3-6 8-9 10-3Zm35 13c10 12-21 13-5 17 10-12 13 24 1 26-10 3-13-12-13-21s1-24 12-24l5 2Zm-8 4c-5 2 2 4 4 2 1-2-2-3-4-2Zm51-18c7 11-4 18-4 4-4 1-6 9-4 13 12-2 12 12 12 20s-3 18-11 18c-12-2-12-16-12-25 1-11 2-24 10-32 3-2 8-2 9 2Zm-7 22c-6 4 6 10 4 4 0-2-2-4-4-4Zm30-26c9 16 13 36 3 52-6 7-16 2-17-6-4-15-3-33 6-47 2-2 6-2 8 1Zm-6 7c-5 16 8 13 3-1 0-2-3-3-3 1Zm29-6c1 9 0 21-7 28-7 2-1-7-1-9-3-8-6-19 2-24 3-1 5 3 6 5Zm16 5c5 13-4 9-7 5 0 8 11 10 11 18 1 8-1 23-13 21-7-7-5-19-4-28 4 3 6 0 1-5-4-7 4-18 12-11Zm36 2c8 14-30 20-22 5 4-5 12-2 17-4l5-1Zm22-26c2 10-4 25 2 39 1 7 2 21-10 19-17-2-10-24-3-34 1-5 5-12 3-16-4 1-12 8-10-1 0-6 4-10 10-8 2 0 5-1 8 1Zm23-3c6 15 10 36 1 52-4 5-15 2-16-5-6-17-4-35 5-49 3-1 8-1 10 2Zm-8 6c-5 17 9 11 5-1-1-3-5-3-5 1Zm27-9c3 9 0 21-7 28-6 0 3-8 0-12-4-7-5-16 3-20 2-1 4 2 4 4Zm18 6c7 12-3 9-6 5 0 6 9 8 10 16 2 8 2 22-9 24-10-1-10-15-9-22 0-6 2-9 6-5 1-5-9-11-2-18 2-2 7-3 10 0Z" style="fill-rule:nonzero;stroke:#000;stroke-linejoin:miter;stroke-miterlimit:4;stroke-width:1.47"/>
  </g>
  <g id="TextGradient">
    <path id="Revinylised1" d="M59 176c-1 13-13 20 0 29 13 16 18 38 8 55-8 8-21 2-23-8-4-13 1-27-1-40 2-4-4-6-4-2-4 17 5 35-2 50-9 8-27 5-27-7-2-13 3-23 7-33 4-15 7-33-4-46-1-9 12-9 17-10 12-1 24 1 29 12Zm-25 1c0 6 2 21 8 10 2-6 0-13-8-10Zm82-9c4 4 6 13 0 15-5 0-10-10-14-6 0 6 16 9 7 16-7-3-11 11-3 10 7-10 18-10 17 3 2 14 3 29 0 42-4 11-19 9-28 11-12 3-25-6-20-20 4-17 17-35 10-53-5-7-9-20 4-21 9-2 16-1 25 1l2 2Zm33 3c1 11-7 24 1 33 8 0 8-11 6-16-8-16 11-31 23-18 2 8-6 16-8 24-6 12-9 28-8 43 1 11-15 20-22 8-6-14 2-31-5-44-3-10-9-18-12-27 1-12 21-12 25-3Zm58-2c5 11-10 21-5 32 3 11 9 26 1 38-5 6-15 8-22 3-9-7-1-22 1-31 5-9 9-21 3-32-5-9 5-15 13-14 2 1 6 1 9 4Zm25-1c6 11 7 24 11 36 1-12-3-23-5-34 4-6 14-8 18-1 1 9-8 19-5 29 1 13 17 50-9 38-7-14-6-30-12-44-6 10 3 22 4 33 8 20-30 21-22 0 0-15 12-30 3-45-3-6-1-15 7-15 4-1 7 0 10 3Zm42 1c1 5-1 14 5 13 7-4-1-15 8-16 4-3 12 2 8 9-4 8-14 16-8 27 4 9 7 21 2 32-8 8-23 3-25-8-5-13 11-23 7-37-4-7-13-15-8-23 4-3 10-2 11 3Zm51 1c-4 8-10 19-4 27 3-3 9-9 12-2 3 11 2 26-1 38-3 11-17 9-27 7-15-5-6-24-2-35 3-9 3-19-1-28-4-6 2-14 9-13 5-1 13 0 14 6Zm40-2c6 11-10 22-3 33 3 13 10 28 3 42-8 10-29 2-28-12 0-17 14-33 7-51-4-4-4-14 3-15 5-1 13-2 18 3Zm49 6c4 6-4 15-10 10-2-5-5-16-10-10-6 3 0 10 4 12 15 6 24 21 22 37-1 14-9 30-24 30-10 1-19-5-21-15-4-9-1-20 0-30 0-14 12 0 17-5-2-12-24-27-4-38 8-3 22-1 26 9Zm49-5c4 4 7 15-1 15-5 0-6-9-12-7-5 7 13 7 7 16-6-1-9 4-10 10 3 14 22-15 22 5 2 15 3 31-3 45-6 10-19 8-28 7-8-1-19-6-18-14 1-18 14-32 13-49 4-10-7-18-5-27 10-9 23-5 34-3l1 2Zm56 9c14 24 17 56 0 77a35 35 0 0 1-40 6c-7-5-8-14-4-21 8-18 14-41 3-60-8-8 3-15 11-15 11-1 26 1 30 13Zm-19 3c2 9-3 23 3 27 9-4 7-20 0-27h-3Z" style="fill:url(#_Revinylised1);fill-rule:nonzero;stroke:#000;stroke-linejoin:miter;stroke-miterlimit:4;stroke-width:1.96"/>
    <path id="Super1" d="M133 265c1 7-6 5-6-1-6 2 1 7 3 8 6 5 5 15 1 21-3 5-11 3-11-4 0-5-1-9 1-13 1 0 6 0 4-3-3-2-6-8-1-11 3-1 7 0 9 3Zm10 6c1 3-4 9 0 10 4-1 1-6 1-8 0-9 9-1 4 4-2 6 4 13-1 17-3 3-11 2-11-4 1-6 2-11 0-17-1-5 4-6 6-2h1Zm20 1c2 3-1 7-4 7-6 2 1 9 1 12 1 6-7 6-9 3-3-6 5-12 1-19-3-3-1-7 3-7 3 0 7 0 8 4Zm-7 0c-2 9 6 0 0 0Zm21-1c2 3-1 8-6 6-3 6 6 0 7 2 1 5 2 12-3 15-5 4-10-2-10-6-1-6 0-14 5-18 2-2 5 0 6 1h1Zm-6 2c-3 3 8 0 0 0Zm15-2c0 2 2-3 4-3 4 2 4 13-1 9-1-7-3 7 0 10 1 3 2 7-2 9-7 2-8-6-6-11 3-4 1-10-1-14 1-3 5-4 6 0Zm37-6c3 5-5 7-4 0-10 2 9 9 7 16 0 4-2 12-6 15-6 1-9-4-9-8s-2-13 2-12c3 1 3-2 1-3-3-3-4-10 1-11 3-1 7 0 7 2l1 1Zm15 6c4 5-6 6-7 8 2 5 7-5 8 1 1 4 2 12-2 14-5 3-9-1-10-4-1-7-1-17 5-22 3 0 4 0 5 3h1Zm-6 2c-3 4 8 0 0 0Zm22-2c0 3-2 8 0 12 3 5 4 15-4 11-3-3-1-9-1-13 3-4-1-11-2-5 0 7 6 18-2 20-6 0-3-9-1-12 2-4 1-9-2-13 3-4 5 1 7-3 3 0 5 0 5 3Zm13-1c3 1 3 6-2 5-3-7-1 2 4 4 2 5 2 12-3 15-6 4-9-5-8-10 0-4 2-7 4-3 0-4-7-10 1-13l4 2Zm16 1c-4 8 7 20-2 25-5 0-10-2-10-6 0-6 1-13 7-15 3-1-2-5-2-1-1 3-4 1-3-1 0-5 8-6 10-2Zm-5 8c-4 2 1 8 1 2l-1-2Zm15-14c2 2-2 6 2 6 2 2-7 4-2 10 3 4 5 15-1 15-4 1-6-5-5-8 1-6 3-13-1-16 4-4 0-11 7-7Zm12 6c0 4-4 9 0 13 1 4 3 10-2 13-6 1-7-6-6-10 2-5 3-10 1-14-1-5 6-5 7-2Zm-4-10c8 1 0 12-2 4-1-1 0-4 2-4Zm16 9c4 6 6 17 1 23-2 5-9 1-10-3-1-7-1-16 5-22 1-1 3 0 4 2Zm-3 3c-3 7 4 7 1 0h-1Zm21-2c0 4-1 8 2 12 1 4 4 9 0 11a5 5 0 0 1-6-4v-16c-4 0-1 7-1 10 0 5 1 15-7 10-3-6 6-14 1-21-2-2 1-6 2-2 3-1 8-5 9 0Zm16 0c-3 8 1 14 1 22-4 5-13 3-12-5-2-7 6-11 6-16-2 0-2 7-4 3-2-5 6-9 9-4Zm-5 8c-2 1-1 8 0 3v-3Zm17-15c1 3-4 6-3 10-1 7 6 14 4 19-9 7-13-4-9-10 2-6 3-12 0-18-1-4 6-4 8-1Zm31-2c3 2-1 5 0 9-1 8 3 16 0 22-9 8-16-6-9-13 2-5 6-9 4-14-3 1-7 6-5 0 0-7 7-4 10-4Zm11 2c1 6 0 12-5 17-4 0 1-5-1-7-1-3-2-9 1-12 2-1 3 1 5 2Zm10 0c1 6 0 12-6 16l-1-14c0-2 3-8 6-3l1 1Z" style="fill:#fd0;fill-rule:nonzero;stroke:#000;stroke-linejoin:miter;stroke-miterlimit:4;stroke-width:.735"/>
    <path id="Sounds1" d="M30 291c2 4-1 11-5 8-1-15-12-2-3 2 14 7 16 30 6 41-7 6-16 1-17-6-2-9-2-17 1-26 2 0 6 4 7 0-3-7-12-16-3-22 5-4 12-2 14 3Zm21 14c5 12 8 31 0 43-8 5-15-8-15-16 0-10 0-21 7-29 2-1 6-1 8 2Zm-6 5c-1 4-2 12 4 9-1-1 0-14-4-9Zm23-1c2 6-6 15 1 18 9-4-6-19 5-22 9 0 5 13 3 17-2 9 8 24-3 29-6 2-16 0-16-8 1-10 4-21 0-30-2-7 6-11 10-4Zm35 3c-1 8-3 15 1 23 1 6 7 16 0 19-10 3-10-11-8-17 0-6 3-16-1-20-5 9 1 22-1 34-1 6-13 5-12-1 7-14 1-30 5-41 2 2 2 4 5 0 3-2 10-3 11 3Zm27-8c0 6-3 15-2 22-1 11 9 24 2 32-7 6-20 3-20-7-1-11-2-25 5-35 3 0 7 4 7-1-4-7-1-17 7-12l1 1Zm-12 22c-2 15 7 4 2-2-1-1-3 3-2 2Zm31-7c6 2 0 17-2 7 0-6-6-2-3 1 6 6 11 14 9 24 0 5-4 15-11 12-8-8-7-19-5-28 12 8-3-8 1-15 2-3 9-4 11-1Zm45 8c4 12 7 28 1 40-8 9-16-1-16-10-1-9-1-22 6-32 2-2 7-1 9 2Zm-7 6c-4 6 6 16 4 3-1-2-1-6-4-3Zm31-18c6 2 2 14-3 9-1-9-6 4 0 3 5 4-1 7-3 9-1 12 10 23 4 34-5 6-16 0-15-7-1-11 9-20 2-29-8-3 3-7 1-13-1-7 7-13 14-6Zm31 7c-2 6-2 10 3 12 2 5-6 2-5 8 0 9 11 22 3 31-7 7-15-3-12-10 2-9 5-16 3-24-10-4 2-8-1-15 0-4 7-4 9-2Zm18-3c0 2-6 15 2 12 16-5 4 16 9 23 1 6 9 17 0 21-5 2-9-2-8-8-2-9 3-18-1-28-5 12 3 24-3 34-16 9-9-16-7-24 4-9-1-18-2-27-3-6 8-9 10-3Zm35 13c10 12-21 14-5 18 10-13 13 23 1 25-10 3-13-12-13-21 0-8 1-24 12-24l5 2Zm-8 4c-5 2 2 4 4 2 1-2-2-3-4-2Zm51-18c7 11-4 18-4 4-4 1-6 9-4 13 12-2 12 13 12 20 0 8-3 18-11 18-12-2-12-16-12-24 1-12 2-25 10-33 3-2 8-2 9 2Zm-7 22c-6 4 6 11 4 4 0-2-2-4-4-4Zm30-26c9 16 13 37 3 52-6 7-16 2-17-6-4-15-3-33 6-47 2-2 6-2 8 1Zm-6 7c-5 16 8 13 3-1 0-2-3-3-3 1Zm29-6c1 9 0 21-7 28-7 3-1-7-1-9-3-8-6-19 2-24 3-1 5 3 6 5Zm16 5c5 13-4 9-7 5 0 8 11 10 11 18 1 8-1 23-13 21-7-7-5-18-4-28 4 3 6 0 1-5-4-7 4-18 12-11Zm36 2c8 14-30 20-22 5 4-5 12-2 17-4l5-1Zm22-26c2 10-4 25 2 39 1 7 2 21-10 19-17-2-10-24-3-34 1-5 5-12 3-16-4 1-12 8-10-1 0-5 4-10 10-8 2 0 5-1 8 1Zm23-3c6 15 10 36 1 52-4 6-15 3-16-5-6-17-4-35 5-49 3-1 8-1 10 2Zm-8 7c-5 16 9 10 5-1-1-4-5-4-5 1Zm27-10c3 10 0 21-7 28-6 0 3-8 0-12-4-6-5-16 3-20 2-1 4 2 4 4Zm18 6c7 12-3 9-6 6 0 5 9 7 10 15 2 8 2 22-9 24-10-1-10-15-9-22 0-6 2-9 6-5 1-5-9-11-2-17 2-3 7-4 10-1Z" style="fill:url(#_Sounds1);fill-rule:nonzero;stroke:#000;stroke-linejoin:miter;stroke-miterlimit:4;stroke-width:1.47"/>
  </g>
  <defs id="defs29">
    <linearGradient id="_Revinylised1" x1="0" x2="1" y1="0" y2="0" gradientTransform="matrix(0 103 -103 0 24 180)" gradientUnits="userSpaceOnUse">
      <stop id="stop20" offset="0" style="stop-color:#e20;stop-opacity:1"/>
      <stop id="stop21" offset=".6" style="stop-color:#f90;stop-opacity:1"/>
      <stop id="stop22" offset="1" style="stop-color:#ed0;stop-opacity:1"/>
    </linearGradient>
    <linearGradient id="_Sounds1" x1="0" x2="1" y1="0" y2="0" gradientTransform="matrix(0 92 -92 0 24 304)" gradientUnits="userSpaceOnUse">
      <stop id="stop23" offset="0" style="stop-color:#ee0;stop-opacity:1"/>
      <stop id="stop24" offset=".3" style="stop-color:#ee0;stop-opacity:1"/>
      <stop id="stop25" offset=".9" style="stop-color:#e20;stop-opacity:1"/>
      <stop id="stop26" offset="1" style="stop-color:#e20;stop-opacity:1"/>
    </linearGradient>
    <radialGradient id="_Shine" cx="0" cy="0" r="1" gradientTransform="matrix(0 154 -54 0 200 199)" gradientUnits="userSpaceOnUse">
      <stop id="stop27" offset="0" style="stop-color:white;stop-opacity:1"/>
      <stop id="stop28" offset=".6" style="stop-color:#bab9b8;stop-opacity:.38"/>
      <stop id="stop29" offset="1" style="stop-color:#9a9897;stop-opacity:.09"/>
    </radialGradient>
    <linearGradient id="_Revinylised1" x1="0" x2="1" y1="0" y2="0" gradientTransform="rotate(90 -78 102) scale(103.2)" gradientUnits="userSpaceOnUse">
      <stop offset="0" style="stop-color:#e20;stop-opacity:1"/>
      <stop offset=".6" style="stop-color:#f90;stop-opacity:1"/>
      <stop offset="1" style="stop-color:#ed0;stop-opacity:1"/>
    </linearGradient>
    <linearGradient id="_Sounds1" x1="0" x2="1" y1="0" y2="0" gradientTransform="matrix(0 91.7 -91.7 0 24 304)" gradientUnits="userSpaceOnUse">
      <stop offset="0" style="stop-color:#ee0;stop-opacity:1"/>
      <stop offset=".3" style="stop-color:#ee0;stop-opacity:1"/>
      <stop offset=".9" style="stop-color:#e20;stop-opacity:1"/>
      <stop offset="1" style="stop-color:#e20;stop-opacity:1"/>
    </linearGradient>
    <radialGradient id="_Shine" cx="0" cy="0" r="1" gradientTransform="matrix(0 154 -53.7 0 200 199)" gradientUnits="userSpaceOnUse">
      <stop offset="0" style="stop-color:white;stop-opacity:1"/>
      <stop offset=".6" style="stop-color:#bab9b8;stop-opacity:.38"/>
      <stop offset="1" style="stop-color:#9a9897;stop-opacity:.09"/>
    </radialGradient>
  </defs>
</svg>
