<svg xmlns="http://www.w3.org/2000/svg" xml:space="preserve" style="fill-rule:evenodd;clip-rule:evenodd;stroke-linejoin:round;stroke-miterlimit:2" viewBox="0 0 540 540">
  <path id="Vinyl" d="M288 42A248.2 248.2 0 0 0 42 288c0 135 111 246 246 246s246-111 246-246S423 42 288 42Zm0 170.5 75.6 75.5-75.6 89.8-79.6-89.8 79.6-75.5Z" style="fill-rule:nonzero" transform="matrix(.98 0 0 .98 -12.1 -12.1)"/>
  <path id="Label" d="M201 201c-48 48-48 127 0 175s127 48 175 0 48-127 0-175-127-48-175 0Zm55 55a45.3 45.3 0 1 1 64 64 45.3 45.3 0 0 1-64-64Z" style="fill:#f37c00;fill-rule:nonzero;stroke:#9b1600;stroke-width:2.72px" transform="matrix(.98 0 0 .98 -12.7 -12.6)"/>
  <circle id="Label-ring" cx="288" cy="288" r="110" style="fill:none;stroke:#b21700;stroke-width:5px;stroke-linejoin:miter;stroke-miterlimit:4" transform="matrix(.98 0 0 .98 -12.4 -12.8)"/>
  <path id="Shine" d="M200 107c-51 0-93 42-93 93s42 93 93 93 93-42 93-93-42-93-93-93Zm-.6 75.7c13-1 19 11.8 17.7 18.4-1 16-17.2 16-18.2 16a17.7 17.7 0 0 1-16.3-17.3s.8-16.8 16.8-17.1Z" style="fill:url(#_Shine);fill-rule:nonzero" transform="matrix(1.8 -1.8 1.8 1.8 -450.5 270)"/>
  <g id="Grooves" transform="matrix(.98 0 0 .98 -12.2 -12.1)">
    <circle cx="288" cy="288" r="245" style="fill:none;stroke:#000;stroke-width:.2px;stroke-linejoin:miter;stroke-miterlimit:4"/>
    <circle cx="288" cy="288" r="240" style="fill:none;stroke:#000;stroke-width:.2px;stroke-linejoin:miter;stroke-miterlimit:4"/>
    <circle cx="288" cy="288" r="235" style="fill:none;stroke:#000;stroke-width:.2px;stroke-linejoin:miter;stroke-miterlimit:4"/>
    <circle cx="288" cy="288" r="230" style="fill:none;stroke:#000;stroke-width:.2px;stroke-linejoin:miter;stroke-miterlimit:4"/>
    <circle cx="288" cy="288" r="225" style="fill:none;stroke:#000;stroke-width:.2px;stroke-linejoin:miter;stroke-miterlimit:4"/>
    <circle cx="288" cy="288" r="220" style="fill:none;stroke:#000;stroke-width:.2px;stroke-linejoin:miter;stroke-miterlimit:4"/>
    <circle cx="288" cy="288" r="215" style="fill:none;stroke:#000;stroke-width:.2px;stroke-linejoin:miter;stroke-miterlimit:4"/>
    <circle cx="288" cy="288" r="210" style="fill:none;stroke:#000;stroke-width:.2px;stroke-linejoin:miter;stroke-miterlimit:4"/>
    <circle cx="288" cy="288" r="205" style="fill:none;stroke:#000;stroke-width:.2px;stroke-linejoin:miter;stroke-miterlimit:4"/>
    <circle cx="288" cy="288" r="200" style="fill:none;stroke:#000;stroke-width:.2px;stroke-linejoin:miter;stroke-miterlimit:4"/>
    <circle cx="288" cy="288" r="195" style="fill:none;stroke:#000;stroke-width:.2px;stroke-linejoin:miter;stroke-miterlimit:4"/>
    <circle cx="288" cy="288" r="190" style="fill:none;stroke:#000;stroke-width:.2px;stroke-linejoin:miter;stroke-miterlimit:4"/>
    <circle cx="288" cy="288" r="185" style="fill:none;stroke:#000;stroke-width:.2px;stroke-linejoin:miter;stroke-miterlimit:4"/>
    <circle cx="288" cy="288" r="180" style="fill:none;stroke:#000;stroke-width:.2px;stroke-linejoin:miter;stroke-miterlimit:4"/>
    <circle cx="288" cy="288" r="175" style="fill:none;stroke:#000;stroke-width:.2px;stroke-linejoin:miter;stroke-miterlimit:4"/>
    <circle cx="288" cy="288" r="170" style="fill:none;stroke:#000;stroke-width:.2px;stroke-linejoin:miter;stroke-miterlimit:4"/>
    <circle cx="288" cy="288" r="160" style="fill:none;stroke:#000;stroke-width:.2px;stroke-linejoin:miter;stroke-miterlimit:4"/>
    <circle cx="288" cy="288" r="150" style="fill:none;stroke:#000;stroke-width:.2px;stroke-linejoin:miter;stroke-miterlimit:4"/>
    <circle cx="288" cy="288" r="140" style="fill:none;stroke:#000;stroke-width:.2px;stroke-linejoin:miter;stroke-miterlimit:4"/>
    <circle cx="288" cy="288" r="130" style="fill:none;stroke:#000;stroke-width:.2px;stroke-linejoin:miter;stroke-miterlimit:4"/>
  </g>
  <path id="Runout" d="M287 140c81 0 149 68 149 148s-68 148-149 148-148-68-148-148 67-148 148-148Z" style="fill:none;fill-rule:nonzero;stroke:#000;stroke-opacity:.36;stroke-width:47px;stroke-linejoin:miter;stroke-miterlimit:4" transform="matrix(.98 0 0 .98 -11.4 -12.1)"/>
  <g id="TextShadow" transform="matrix(.98 0 0 .98 -13.2 -12.1)">
    <path id="Revinylised" d="M74 192c-1 13-14 20 0 30 13 16 18 38 8 56-8 8-22 2-24-9-4-13 1-27-1-40 2-4-4-6-4-2-4 17 5 35-2 51-9 8-27 5-27-8-2-13 3-23 7-33 4-15 7-34-4-47-1-9 12-9 17-10 12-1 25 1 30 12Zm-26 1c0 6 2 21 8 10 2-6 0-13-8-10Zm84-9c4 4 6 13 0 15-5 0-10-10-14-6 0 6 16 9 7 16-7-3-12 11-3 10 7-10 18-10 17 4 2 14 3 29 0 42-4 12-19 10-29 12-12 3-25-7-20-21 4-17 17-35 10-54-5-7-9-20 4-21 9-2 17-1 26 1l2 2Zm33 3c2 11-7 24 2 34 8 0 8-12 6-17-9-16 11-31 23-18 2 8-6 16-8 24-6 13-9 29-8 44 1 11-16 21-23 8-6-14 2-31-5-45-3-10-9-18-12-27 1-12 21-12 25-3Zm60-2c5 11-11 21-5 32 3 12 9 27 1 39-6 6-16 8-23 3-9-7-1-22 1-31 5-10 9-22 3-33-5-9 5-15 13-14 3 1 7 1 10 4Zm25-1c6 11 7 24 11 36 1-12-3-23-5-34 4-6 15-8 19-1 1 9-8 19-5 29 1 14 17 51-10 39-7-14-6-30-12-45-6 10 3 23 4 34 8 20-30 21-22 0 0-15 12-31 3-46-3-6-1-15 7-15 4-1 7 0 10 3Zm43 1c1 5-1 14 5 13 7-4-1-15 8-16 4-3 13 2 8 9-4 8-14 16-8 27 4 10 7 22 2 33-8 8-23 3-25-8-5-13 11-24 7-38-4-7-13-15-8-23 4-3 10-2 11 3Zm52 1c-4 8-10 19-4 27 3-3 9-9 12-2 3 12 2 27-1 39-3 11-17 9-27 7-16-5-6-24-2-35 3-10 3-20-1-29-4-6 2-14 9-13 5-1 13 0 14 6Zm41-2c6 11-10 22-3 33 3 14 10 29 3 43-8 10-30 2-29-12 0-17 15-34 7-52-4-4-4-14 4-15 5-1 13-2 18 3Zm50 6c4 6-4 15-10 10-2-5-5-16-11-10-6 3 0 10 5 12 15 6 24 22 22 38-1 14-9 31-24 31-11 1-20-6-22-16-4-9-1-20 0-30 0-15 12 0 17-6-2-12-24-27-4-38 9-3 23-1 27 9Zm50-5c4 4 7 15-1 15-5 0-6-9-12-7-5 7 13 7 7 16-6-1-9 4-10 10 3 15 22-15 22 6 2 15 3 31-3 46-6 10-19 8-29 7-8-1-19-6-18-15 1-18 14-32 13-50 4-10-7-18-5-27 10-9 24-5 35-3l1 2Zm57 9c14 24 17 57 0 79a36 36 0 0 1-41 6c-7-5-8-15-4-22 8-18 14-42 3-61-8-8 3-15 11-15 12-1 27 1 31 13Zm-19 3c2 9-3 23 3 28 9-4 7-21 0-28h-3Z" style="fill-rule:nonzero;stroke:#000;stroke-width:2px;stroke-linejoin:miter;stroke-miterlimit:4" transform="translate(0 8)"/>
    <path id="Super" d="M149 281c1 7-6 5-6-1-6 2 1 7 3 8 6 5 5 15 1 21-3 5-11 3-11-4 0-5-1-9 1-13 1 0 6 0 4-3-3-2-6-8-1-11 3-1 7 0 9 3Zm10 6c1 3-4 9 0 10 4-1 1-6 1-8 0-9 10-1 4 4-2 6 5 13-1 17-3 3-11 2-11-4 1-6 2-11 0-17-1-5 4-6 6-2h1Zm21 1c2 3-1 7-4 7-6 2 1 9 1 12 1 6-7 6-9 3-4-6 5-12 1-19-3-3-1-7 3-7 3 0 7 0 8 4Zm-7 0c-2 9 6 0 0 0Zm21-1c2 3-1 8-6 6-3 6 6 0 7 2 1 5 2 12-3 15-5 4-10-2-10-6-1-6 0-14 5-18 2-2 5 0 6 1h1Zm-6 2c-3 3 8 0 0 0Zm15-2c0 2 2-3 4-3 4 2 4 13-1 9-1-7-3 7 0 10 1 3 2 7-2 9-7 2-8-6-6-11 3-4 1-10-1-14 1-3 5-4 6 0Zm38-6c3 5-5 7-4 0-10 2 9 9 7 16 0 4-2 12-6 15-6 1-9-4-9-8s-2-13 2-12c3 1 3-2 1-3-3-3-4-10 1-11 3-1 7 0 7 2l1 1Zm15 6c4 5-6 6-7 8 2 5 7-5 8 1 1 4 2 12-2 14-5 3-9-1-10-4-1-7-1-17 5-22 3 0 4 0 5 3h1Zm-6 2c-3 4 8 0 0 0Zm23-2c0 3-2 8 0 12 3 5 4 15-4 11-3-3-1-9-1-13 3-4-1-11-2-5-1 7 6 18-3 20-6 0-3-9-1-12 2-4 1-9-2-13 3-4 5 1 8-3 3 0 5 0 5 3Zm13-1c3 1 3 6-2 5-3-7-1 2 4 4 2 5 2 12-3 15-6 4-9-5-8-10 0-4 2-7 4-3 0-4-7-10 1-13l4 2Zm16 1c-4 8 7 20-2 25-5 0-10-2-10-6 0-6 1-13 7-15 3-1-2-5-2-1-1 3-4 1-3-1 0-5 8-6 10-2Zm-5 8c-4 2 1 8 1 2l-1-2Zm15-14c2 2-2 6 2 6 3 2-7 4-2 10 3 4 6 15-1 15-4 1-6-5-5-8 1-6 3-13-1-16 4-4 0-11 7-7Zm13 6c0 4-4 9 0 13 1 4 3 10-2 13-6 1-8-6-6-10 2-5 3-10 1-14-1-5 6-5 7-2Zm-4-10c8 1 0 12-2 4-1-1 0-4 2-4Zm16 9c4 6 6 17 1 23-2 5-9 1-10-3-1-7-1-16 5-22 1-1 3 0 4 2Zm-3 3c-3 7 4 7 1 0h-1Zm21-2c0 4-1 8 2 12 1 4 4 9 0 11a5 5 0 0 1-6-4v-16c-4 0-1 7-1 10 0 5 1 15-7 10-3-6 6-14 1-21-2-2 1-6 2-2 3-1 8-5 9 0Zm17 0c-3 8 1 14 1 22-4 5-14 3-13-5-2-7 7-11 7-16-3 0-3 7-5 3-2-5 7-9 10-4Zm-5 8c-3 1-1 8 0 3v-3Zm17-15c1 3-4 6-3 10-1 7 6 14 4 19-9 7-13-4-9-10 2-6 3-12 0-18-1-4 6-4 8-1Zm31-2c4 2-1 5 0 9-1 8 4 16 1 22-10 8-17-6-10-13 2-5 6-9 4-14-3 1-7 6-5 0 0-7 7-4 10-4Zm12 2c1 6 0 12-5 17-4 0 1-5-1-7-1-3-2-9 1-12 2-1 3 1 5 2Zm10 0c1 6 0 12-6 16l-1-14c0-2 3-8 6-3l1 1Z" style="fill-rule:nonzero;stroke:#000;stroke-width:.75px;stroke-linejoin:miter;stroke-miterlimit:4" transform="translate(0 6)"/>
    <path id="Sounds" d="M44 309c2 4-1 11-5 8-1-15-12-2-3 2 14 8 16 31 6 42-7 6-16 1-17-6-2-9-2-17 1-26 2 0 6 4 7 0-3-7-12-17-3-23 5-4 12-2 14 3Zm21 15c6 12 9 31 1 43-9 6-16-8-16-16 0-10 0-21 7-29 2-2 6-1 8 2Zm-6 5c-1 4-2 12 4 9-1-1 0-14-4-9Zm24-1c2 6-6 15 1 18 9-4-6-19 5-22 9 0 5 13 3 17-2 9 8 24-3 30-6 2-16-1-16-9 1-10 4-21 0-30-2-7 6-11 10-4Zm36 3c-1 8-3 15 1 23 1 6 7 17 0 20-11 3-11-12-9-18 0-6 3-16-1-20-5 9 1 22-1 34-1 7-13 6-12-1 7-14 1-30 5-41 2 2 2 4 5 0 3-2 11-3 12 3Zm27-8c0 6-3 15-2 22-1 11 9 24 2 33-7 6-20 3-20-7-1-12-2-26 5-36 3 0 7 4 7-1-4-7-1-18 7-12l1 1Zm-12 22c-2 15 7 4 2-2-1-1-3 3-2 2Zm32-7c6 2 0 17-3 7 0-6-6-2-3 1 7 6 12 14 10 24 0 6-4 16-12 13-8-8-7-20-5-29 12 8-3-8 1-15 2-3 9-4 12-1Zm45 8c5 12 8 29 1 41-8 9-16-1-16-10-1-10-1-23 6-33 2-2 7-1 9 2Zm-7 6c-4 6 6 16 4 3-1-2-1-6-4-3Zm32-18c6 2 2 14-3 9-1-9-6 4 0 3 5 4-1 7-3 9-1 12 10 24 4 35-5 6-16 0-15-7-1-11 9-21 2-30-9-3 3-7 1-13-1-7 7-13 14-6Zm32 7c-2 6-2 10 3 12 2 5-7 2-5 8 0 10 11 23 3 32-8 7-16-3-13-10 2-9 5-17 3-25-10-4 2-8-1-15 0-4 7-4 10-2Zm18-3c0 2-6 15 2 12 16-5 4 16 9 24 1 6 9 17 0 21-5 2-9-2-8-8-2-9 3-19-1-29-5 12 3 25-3 35-16 9-9-16-7-25 4-9-1-18-2-27-3-6 8-9 10-3Zm36 13c10 12-22 14-5 18 10-13 13 24 1 26-11 3-14-12-14-21s1-25 13-25l5 2Zm-9 4c-5 2 2 4 5 2 1-2-3-3-5-2Zm53-18c7 11-5 18-5 4-4 1-6 9-4 13 13-2 13 13 13 21s-3 18-12 18c-12-2-12-16-12-25 1-12 2-25 10-33 3-2 8-2 10 2Zm-8 22c-6 4 6 11 4 4 0-2-2-4-4-4Zm31-26c9 16 13 37 3 53-6 7-16 2-17-6-4-16-3-34 6-48 2-2 6-2 8 1Zm-6 7c-5 16 8 13 3-1 0-2-3-3-3 1Zm29-6c1 9 0 21-7 28-7 3-1-7-1-9-3-8-6-19 2-24 3-1 5 3 6 5Zm17 5c5 13-4 9-7 5 0 8 11 10 11 18 1 9-1 24-13 22-8-7-6-19-4-29 4 3 6 0 1-5-5-7 4-18 12-11Zm36 2c9 14-30 20-22 5 4-5 12-2 17-4l5-1Zm23-27c2 11-4 26 2 40 1 7 2 22-10 20-18-2-10-25-3-35 1-5 5-12 3-16-4 1-12 8-10-1 0-6 4-11 10-9 2 0 5-1 8 1Zm23-3c7 16 11 37 1 53-4 6-15 3-16-5-6-17-4-35 5-50 3-1 8-1 10 2Zm-8 7c-5 17 9 11 5-1-1-4-5-4-5 1Zm28-10c3 10 0 22-7 29-6 0 3-8 0-12-4-7-5-17 3-21 2-1 4 2 4 4Zm18 6c7 13-3 10-6 6 0 6 9 8 10 16 2 8 2 22-9 24-10-1-10-15-9-22 0-6 2-9 6-5 1-5-9-11-2-18 2-3 7-4 10-1Z" style="fill-rule:nonzero;stroke:#000;stroke-width:1.5px;stroke-linejoin:miter;stroke-miterlimit:4" transform="translate(0 6)"/>
  </g>
  <g id="TextGradient" transform="matrix(.98 0 0 .98 -13.2 -12.1)">
    <path id="Revinylised1" d="M74 192c-1 13-14 20 0 30 13 16 18 38 8 56-8 8-22 2-24-9-4-13 1-27-1-40 2-4-4-6-4-2-4 17 5 35-2 51-9 8-27 5-27-8-2-13 3-23 7-33 4-15 7-34-4-47-1-9 12-9 17-10 12-1 25 1 30 12Zm-26 1c0 6 2 21 8 10 2-6 0-13-8-10Zm84-9c4 4 6 13 0 15-5 0-10-10-14-6 0 6 16 9 7 16-7-3-12 11-3 10 7-10 18-10 17 4 2 14 3 29 0 42-4 12-19 10-29 12-12 3-25-7-20-21 4-17 17-35 10-54-5-7-9-20 4-21 9-2 17-1 26 1l2 2Zm33 3c2 11-7 24 2 34 8 0 8-12 6-17-9-16 11-31 23-18 2 8-6 16-8 24-6 13-9 29-8 44 1 11-16 21-23 8-6-14 2-31-5-45-3-10-9-18-12-27 1-12 21-12 25-3Zm60-2c5 11-11 21-5 32 3 12 9 27 1 39-6 6-16 8-23 3-9-7-1-22 1-31 5-10 9-22 3-33-5-9 5-15 13-14 3 1 7 1 10 4Zm25-1c6 11 7 24 11 36 1-12-3-23-5-34 4-6 15-8 19-1 1 9-8 19-5 29 1 14 17 51-10 39-7-14-6-30-12-45-6 10 3 23 4 34 8 20-30 21-22 0 0-15 12-31 3-46-3-6-1-15 7-15 4-1 7 0 10 3Zm43 1c1 5-1 14 5 13 7-4-1-15 8-16 4-3 13 2 8 9-4 8-14 16-8 27 4 10 7 22 2 33-8 8-23 3-25-8-5-13 11-24 7-38-4-7-13-15-8-23 4-3 10-2 11 3Zm52 1c-4 8-10 19-4 27 3-3 9-9 12-2 3 12 2 27-1 39-3 11-17 9-27 7-16-5-6-24-2-35 3-10 3-20-1-29-4-6 2-14 9-13 5-1 13 0 14 6Zm41-2c6 11-10 22-3 33 3 14 10 29 3 43-8 10-30 2-29-12 0-17 15-34 7-52-4-4-4-14 4-15 5-1 13-2 18 3Zm50 6c4 6-4 15-10 10-2-5-5-16-11-10-6 3 0 10 5 12 15 6 24 22 22 38-1 14-9 31-24 31-11 1-20-6-22-16-4-9-1-20 0-30 0-15 12 0 17-6-2-12-24-27-4-38 9-3 23-1 27 9Zm50-5c4 4 7 15-1 15-5 0-6-9-12-7-5 7 13 7 7 16-6-1-9 4-10 10 3 15 22-15 22 6 2 15 3 31-3 46-6 10-19 8-29 7-8-1-19-6-18-15 1-18 14-32 13-50 4-10-7-18-5-27 10-9 24-5 35-3l1 2Zm57 9c14 24 17 57 0 79a36 36 0 0 1-41 6c-7-5-8-15-4-22 8-18 14-42 3-61-8-8 3-15 11-15 12-1 27 1 31 13Zm-19 3c2 9-3 23 3 28 9-4 7-21 0-28h-3Z" style="fill:url(#_Revinylised1);fill-rule:nonzero;stroke:#000;stroke-width:2px;stroke-linejoin:miter;stroke-miterlimit:4"/>
    <path id="Super1" d="M149 281c1 7-6 5-6-1-6 2 1 7 3 8 6 5 5 15 1 21-3 5-11 3-11-4 0-5-1-9 1-13 1 0 6 0 4-3-3-2-6-8-1-11 3-1 7 0 9 3Zm10 6c1 3-4 9 0 10 4-1 1-6 1-8 0-9 10-1 4 4-2 6 5 13-1 17-3 3-11 2-11-4 1-6 2-11 0-17-1-5 4-6 6-2h1Zm21 1c2 3-1 7-4 7-6 2 1 9 1 12 1 6-7 6-9 3-4-6 5-12 1-19-3-3-1-7 3-7 3 0 7 0 8 4Zm-7 0c-2 9 6 0 0 0Zm21-1c2 3-1 8-6 6-3 6 6 0 7 2 1 5 2 12-3 15-5 4-10-2-10-6-1-6 0-14 5-18 2-2 5 0 6 1h1Zm-6 2c-3 3 8 0 0 0Zm15-2c0 2 2-3 4-3 4 2 4 13-1 9-1-7-3 7 0 10 1 3 2 7-2 9-7 2-8-6-6-11 3-4 1-10-1-14 1-3 5-4 6 0Zm38-6c3 5-5 7-4 0-10 2 9 9 7 16 0 4-2 12-6 15-6 1-9-4-9-8s-2-13 2-12c3 1 3-2 1-3-3-3-4-10 1-11 3-1 7 0 7 2l1 1Zm15 6c4 5-6 6-7 8 2 5 7-5 8 1 1 4 2 12-2 14-5 3-9-1-10-4-1-7-1-17 5-22 3 0 4 0 5 3h1Zm-6 2c-3 4 8 0 0 0Zm23-2c0 3-2 8 0 12 3 5 4 15-4 11-3-3-1-9-1-13 3-4-1-11-2-5-1 7 6 18-3 20-6 0-3-9-1-12 2-4 1-9-2-13 3-4 5 1 8-3 3 0 5 0 5 3Zm13-1c3 1 3 6-2 5-3-7-1 2 4 4 2 5 2 12-3 15-6 4-9-5-8-10 0-4 2-7 4-3 0-4-7-10 1-13l4 2Zm16 1c-4 8 7 20-2 25-5 0-10-2-10-6 0-6 1-13 7-15 3-1-2-5-2-1-1 3-4 1-3-1 0-5 8-6 10-2Zm-5 8c-4 2 1 8 1 2l-1-2Zm15-14c2 2-2 6 2 6 3 2-7 4-2 10 3 4 6 15-1 15-4 1-6-5-5-8 1-6 3-13-1-16 4-4 0-11 7-7Zm13 6c0 4-4 9 0 13 1 4 3 10-2 13-6 1-8-6-6-10 2-5 3-10 1-14-1-5 6-5 7-2Zm-4-10c8 1 0 12-2 4-1-1 0-4 2-4Zm16 9c4 6 6 17 1 23-2 5-9 1-10-3-1-7-1-16 5-22 1-1 3 0 4 2Zm-3 3c-3 7 4 7 1 0h-1Zm21-2c0 4-1 8 2 12 1 4 4 9 0 11a5 5 0 0 1-6-4v-16c-4 0-1 7-1 10 0 5 1 15-7 10-3-6 6-14 1-21-2-2 1-6 2-2 3-1 8-5 9 0Zm17 0c-3 8 1 14 1 22-4 5-14 3-13-5-2-7 7-11 7-16-3 0-3 7-5 3-2-5 7-9 10-4Zm-5 8c-3 1-1 8 0 3v-3Zm17-15c1 3-4 6-3 10-1 7 6 14 4 19-9 7-13-4-9-10 2-6 3-12 0-18-1-4 6-4 8-1Zm31-2c4 2-1 5 0 9-1 8 4 16 1 22-10 8-17-6-10-13 2-5 6-9 4-14-3 1-7 6-5 0 0-7 7-4 10-4Zm12 2c1 6 0 12-5 17-4 0 1-5-1-7-1-3-2-9 1-12 2-1 3 1 5 2Zm10 0c1 6 0 12-6 16l-1-14c0-2 3-8 6-3l1 1Z" style="fill:#fd0;fill-rule:nonzero;stroke:#000;stroke-width:.75px;stroke-linejoin:miter;stroke-miterlimit:4" transform="translate(0 2)"/>
    <path id="Sounds1" d="M44 309c2 4-1 11-5 8-1-15-12-2-3 2 14 8 16 31 6 42-7 6-16 1-17-6-2-9-2-17 1-26 2 0 6 4 7 0-3-7-12-17-3-23 5-4 12-2 14 3Zm21 15c6 12 9 31 1 43-9 6-16-8-16-16 0-10 0-21 7-29 2-2 6-1 8 2Zm-6 5c-1 4-2 12 4 9-1-1 0-14-4-9Zm24-1c2 6-6 15 1 18 9-4-6-19 5-22 9 0 5 13 3 17-2 9 8 24-3 30-6 2-16-1-16-9 1-10 4-21 0-30-2-7 6-11 10-4Zm36 3c-1 8-3 15 1 23 1 6 7 17 0 20-11 3-11-12-9-18 0-6 3-16-1-20-5 9 1 22-1 34-1 7-13 6-12-1 7-14 1-30 5-41 2 2 2 4 5 0 3-2 11-3 12 3Zm27-8c0 6-3 15-2 22-1 11 9 24 2 33-7 6-20 3-20-7-1-12-2-26 5-36 3 0 7 4 7-1-4-7-1-18 7-12l1 1Zm-12 22c-2 15 7 4 2-2-1-1-3 3-2 2Zm32-7c6 2 0 17-3 7 0-6-6-2-3 1 7 6 12 14 10 24 0 6-4 16-12 13-8-8-7-20-5-29 12 8-3-8 1-15 2-3 9-4 12-1Zm45 8c5 12 8 29 1 41-8 9-16-1-16-10-1-10-1-23 6-33 2-2 7-1 9 2Zm-7 6c-4 6 6 16 4 3-1-2-1-6-4-3Zm32-18c6 2 2 14-3 9-1-9-6 4 0 3 5 4-1 7-3 9-1 12 10 24 4 35-5 6-16 0-15-7-1-11 9-21 2-30-9-3 3-7 1-13-1-7 7-13 14-6Zm32 7c-2 6-2 10 3 12 2 5-7 2-5 8 0 10 11 23 3 32-8 7-16-3-13-10 2-9 5-17 3-25-10-4 2-8-1-15 0-4 7-4 10-2Zm18-3c0 2-6 15 2 12 16-5 4 16 9 24 1 6 9 17 0 21-5 2-9-2-8-8-2-9 3-19-1-29-5 12 3 25-3 35-16 9-9-16-7-25 4-9-1-18-2-27-3-6 8-9 10-3Zm36 13c10 12-22 14-5 18 10-13 13 24 1 26-11 3-14-12-14-21s1-25 13-25l5 2Zm-9 4c-5 2 2 4 5 2 1-2-3-3-5-2Zm53-18c7 11-5 18-5 4-4 1-6 9-4 13 13-2 13 13 13 21s-3 18-12 18c-12-2-12-16-12-25 1-12 2-25 10-33 3-2 8-2 10 2Zm-8 22c-6 4 6 11 4 4 0-2-2-4-4-4Zm31-26c9 16 13 37 3 53-6 7-16 2-17-6-4-16-3-34 6-48 2-2 6-2 8 1Zm-6 7c-5 16 8 13 3-1 0-2-3-3-3 1Zm29-6c1 9 0 21-7 28-7 3-1-7-1-9-3-8-6-19 2-24 3-1 5 3 6 5Zm17 5c5 13-4 9-7 5 0 8 11 10 11 18 1 9-1 24-13 22-8-7-6-19-4-29 4 3 6 0 1-5-5-7 4-18 12-11Zm36 2c9 14-30 20-22 5 4-5 12-2 17-4l5-1Zm23-27c2 11-4 26 2 40 1 7 2 22-10 20-18-2-10-25-3-35 1-5 5-12 3-16-4 1-12 8-10-1 0-6 4-11 10-9 2 0 5-1 8 1Zm23-3c7 16 11 37 1 53-4 6-15 3-16-5-6-17-4-35 5-50 3-1 8-1 10 2Zm-8 7c-5 17 9 11 5-1-1-4-5-4-5 1Zm28-10c3 10 0 22-7 29-6 0 3-8 0-12-4-7-5-17 3-21 2-1 4 2 4 4Zm18 6c7 13-3 10-6 6 0 6 9 8 10 16 2 8 2 22-9 24-10-1-10-15-9-22 0-6 2-9 6-5 1-5-9-11-2-18 2-3 7-4 10-1Z" style="fill:url(#_Sounds1);fill-rule:nonzero;stroke:#000;stroke-width:1.5px;stroke-linejoin:miter;stroke-miterlimit:4"/>
  </g>
  <defs>
    <linearGradient id="_Revinylised1" x1="0" x2="1" y1="0" y2="0" gradientTransform="rotate(90 -78 102) scale(103.2)" gradientUnits="userSpaceOnUse">
      <stop offset="0" style="stop-color:#e20;stop-opacity:1"/>
      <stop offset=".6" style="stop-color:#f90;stop-opacity:1"/>
      <stop offset="1" style="stop-color:#ed0;stop-opacity:1"/>
    </linearGradient>
    <linearGradient id="_Sounds1" x1="0" x2="1" y1="0" y2="0" gradientTransform="matrix(0 91.7 -91.7 0 24 304)" gradientUnits="userSpaceOnUse">
      <stop offset="0" style="stop-color:#ee0;stop-opacity:1"/>
      <stop offset=".3" style="stop-color:#ee0;stop-opacity:1"/>
      <stop offset=".9" style="stop-color:#e20;stop-opacity:1"/>
      <stop offset="1" style="stop-color:#e20;stop-opacity:1"/>
    </linearGradient>
    <radialGradient id="_Shine" cx="0" cy="0" r="1" gradientTransform="matrix(0 154 -53.7 0 200 199)" gradientUnits="userSpaceOnUse">
      <stop offset="0" style="stop-color:white;stop-opacity:1"/>
      <stop offset=".6" style="stop-color:#bab9b8;stop-opacity:.38"/>
      <stop offset="1" style="stop-color:#9a9897;stop-opacity:.09"/>
    </radialGradient>
  </defs>
</svg>
